<?xml version="1.0" standalone="no"?>
<!DOCTYPE svg PUBLIC "-//W3C//DTD SVG 20010904//EN" "http://www.w3.org/TR/2001/REC-SVG-20010904/DTD/svg10.dtd">
<svg version="1.0" xmlns="http://www.w3.org/2000/svg" width="260.000000pt" height="260.000000pt" viewBox="0 0 260.000000 260.000000" preserveAspectRatio="xMidYMid meet">
    <g transform="translate(0.000000,260.000000) scale(0.100000,-0.100000)" fill="#000000" stroke="none">
        <path d="M1167 2559 c-24 -14 -47 -62 -47 -101 0 -49 41 -127 95 -180 l47 -46 -43 16 c-63 23 -176 22 -221 -2 -52 -28 -67 -61 -59 -126 2 -20 42 -50 67 -50 22 0 24 -3 18 -22 -26 -81 39 -145 121 -118 43 14 99 79 121 139 32 92 30 90 43 43 21 -74 70 -150 114 -173 28 -15 77 -19 102 -7 33 15 49 50 42 97 -3 23 -2 39 2 37 4 -3 21 2 38 11 70 33 61 132 -15 170 -48 23 -170 23 -227 -1 l-40 -17 47 47 c81 79 117 179 87 237 -30 59 -89 73 -137 32 l-29 -24 -23 24 c-25 27 -71 33 -103 14z"/>
        <path d="M613 2189 c-38 -14 -49 -43 -49 -127 1 -67 -1 -78 -14 -73 -8 4 -54 26 -103 50 -89 44 -111 47 -150 17 -24 -19 -33 -63 -32 -154 l1 -73 -36 8 c-67 15 -133 10 -166 -14 -67 -48 -65 -20 -62 -760 3 -732 0 -694 63 -733 27 -17 197 -65 335 -95 8 -2 49 -12 90 -23 70 -19 462 -119 498 -127 9 -2 53 -13 97 -24 99 -24 328 -28 403 -6 26 8 263 68 527 135 264 67 491 128 505 137 14 8 34 27 45 41 19 26 20 45 23 697 2 638 1 672 -16 705 -29 53 -63 73 -124 74 -29 0 -69 -3 -88 -7 l-35 -8 -1 83 c0 101 -16 132 -76 149 -38 10 -46 8 -129 -34 -49 -24 -89 -39 -90 -33 -1 6 -2 44 -3 84 -1 67 -4 76 -28 97 -18 15 -35 21 -52 18 -26 -5 -30 -8 -227 -195 -68 -64 -144 -135 -169 -158 -25 -24 -76 -72 -115 -108 -38 -36 -86 -81 -105 -99 l-35 -32 -56 52 c-31 29 -117 109 -190 178 -74 70 -148 140 -165 155 -16 16 -71 68 -121 115 -94 89 -114 101 -150 88z"/>
    </g>
</svg>
